<svg xmlns="http://www.w3.org/2000/svg" viewBox="0 0 512 512">
  <defs>
    <linearGradient id="bg" x1="0%" y1="0%" x2="100%" y2="100%">
      <stop offset="0%" style="stop-color:#8B5CF6"/>
      <stop offset="100%" style="stop-color:#6D28D9"/>
    </linearGradient>
    <linearGradient id="page" x1="0%" y1="0%" x2="100%" y2="100%">
      <stop offset="0%" style="stop-color:#A78BFA;stop-opacity:0.3"/>
      <stop offset="100%" style="stop-color:#7C3AED;stop-opacity:0.1"/>
    </linearGradient>
  </defs>
  <!-- Rounded square background -->
  <rect x="32" y="32" width="448" height="448" rx="96" ry="96" fill="url(#bg)"/>
  <!-- Page fold accent -->
  <path d="M340 80 L432 80 C456 80 480 104 480 128 L480 172 L340 172 Z" fill="url(#page)"/>
  <!-- "U" letterform -->
  <path d="M160 160 L160 340 C160 388 200 428 256 428 C312 428 352 388 352 340 L352 160 L304 160 L304 336 C304 360 282 380 256 380 C230 380 208 360 208 336 L208 160 Z" fill="white"/>
  <!-- Notebook binding dots -->
  <circle cx="112" cy="180" r="8" fill="rgba(255,255,255,0.4)"/>
  <circle cx="112" cy="240" r="8" fill="rgba(255,255,255,0.4)"/>
  <circle cx="112" cy="300" r="8" fill="rgba(255,255,255,0.4)"/>
  <circle cx="112" cy="360" r="8" fill="rgba(255,255,255,0.4)"/>
</svg>
